<svg xmlns:xlink="http://www.w3.org/1999/xlink" version="1.0" xmlns="http://www.w3.org/2000/svg" width="828" height="703" viewBox="0 0 828.000000 703.000000" preserveAspectRatio="xMidYMid meet">

<g transform="translate(0.000000,703.000000) scale(0.100000,-0.100000)" fill="#000000" stroke="none">
<path d="M4365 6471 c-33 -9 -237 -113 -298 -152 -37 -24 -84 -56 -182 -124 -27 -20 -75 -56 -105 -81 -30 -24 -72 -56 -93 -70 -21 -13 -46 -32 -57 -42 -11 -9 -40 -33 -65 -52 -129 -99 -458 -377 -502 -424 -21 -22 -67 -66 -103 -97 -167 -146 -280 -248 -336 -303 -33 -34 -110 -109 -170 -168 -60 -58 -118 -117 -129 -130 -12 -13 -48 -49 -80 -80 -33 -31 -82 -81 -110 -112 -27 -31 -97 -105 -155 -164 -58 -60 -123 -131 -145 -157 -48 -59 -73 -86 -168 -185 -41 -41 -80 -85 -88 -97 -18 -27 -315 -379 -348 -413 -14 -14 -34 -38 -45 -55 -20 -29 -54 -68 -123 -144 -18 -19 -33 -40 -33 -46 0 -6 -12 -22 -26 -36 -15 -13 -37 -41 -50 -61 -13 -21 -30 -38 -38 -38 -17 0 -46 -32 -46 -52 0 -8 -12 -28 -27 -44 -25 -26 -126 -151 -243 -300 -25 -31 -62 -88 -83 -127 -42 -77 -43 -108 -3 -146 22 -21 31 -22 112 -18 131 7 213 26 359 82 33 12 76 26 95 30 19 4 51 16 70 26 19 10 60 25 90 33 56 15 139 42 246 82 33 13 80 26 105 30 24 4 53 13 64 20 11 7 38 17 60 23 22 6 75 19 117 30 43 11 86 17 98 14 11 -3 30 1 42 9 38 25 110 45 168 46 30 2 75 7 100 12 112 23 139 26 152 19 8 -4 77 -9 153 -10 99 -1 147 -6 163 -16 38 -23 23 -73 -23 -73 -32 0 -36 -9 -20 -41 14 -26 13 -34 -16 -105 -16 -43 -43 -103 -60 -133 -16 -31 -29 -61 -29 -67 0 -6 -9 -19 -20 -29 -11 -10 -20 -25 -20 -34 0 -9 -11 -32 -24 -51 -12 -19 -28 -51 -35 -70 -6 -19 -22 -55 -36 -79 -14 -23 -25 -48 -25 -55 0 -6 -8 -23 -17 -36 -10 -14 -48 -90 -85 -170 -38 -80 -73 -152 -78 -160 -6 -8 -18 -31 -26 -50 -9 -19 -38 -81 -65 -137 -27 -56 -49 -106 -49 -109 0 -4 -13 -28 -30 -54 -16 -26 -39 -72 -50 -104 -10 -31 -28 -74 -38 -94 -10 -20 -40 -82 -66 -137 -27 -55 -58 -118 -69 -140 -48 -92 -127 -260 -162 -345 -15 -36 -31 -69 -35 -75 -20 -26 -70 -135 -70 -152 0 -30 39 -113 53 -113 14 0 80 66 120 122 51 70 117 168 148 220 16 29 43 73 59 98 16 25 34 54 40 65 6 11 30 47 55 80 25 33 55 80 66 105 12 25 37 67 56 94 18 26 33 53 33 60 0 6 20 38 45 71 25 33 48 69 51 80 4 11 25 49 48 85 23 36 47 77 53 93 7 15 17 27 23 27 6 0 20 20 33 44 38 77 115 202 131 215 9 8 16 19 16 25 0 6 13 30 28 52 15 23 44 67 65 98 20 31 37 59 37 62 0 3 15 23 33 44 18 22 39 52 47 67 8 15 22 37 31 48 9 11 27 39 39 62 12 24 26 43 30 43 4 0 22 24 40 53 17 28 52 82 78 119 26 36 68 97 94 135 25 37 61 88 78 112 l32 43 66 -6 c59 -6 71 -4 103 16 34 22 120 112 212 223 23 28 59 65 80 84 l39 35 41 -22 c23 -12 67 -26 97 -31 48 -8 62 -6 119 17 39 16 83 44 110 70 32 31 47 40 55 32 11 -11 -18 -72 -76 -157 -15 -23 -28 -48 -28 -56 0 -8 -9 -22 -20 -32 -11 -10 -22 -27 -25 -39 -4 -11 -28 -66 -55 -121 -82 -171 -100 -212 -114 -262 -8 -26 -22 -68 -32 -93 -12 -31 -19 -84 -22 -172 -4 -125 -4 -128 23 -170 30 -47 88 -89 156 -114 79 -28 310 0 406 49 18 10 37 17 43 17 12 0 255 119 315 154 22 13 86 50 142 82 109 64 330 210 430 286 34 26 78 54 98 64 19 9 35 20 35 25 0 5 19 23 43 39 72 52 138 103 192 150 29 25 69 59 90 75 20 17 56 46 79 66 22 19 51 42 63 50 12 9 45 35 74 60 28 24 92 79 143 122 50 43 123 109 161 146 39 37 85 76 103 87 17 10 32 21 32 24 0 4 27 32 59 64 55 53 113 111 129 128 4 4 36 33 72 63 35 31 71 68 81 83 9 15 43 50 76 77 33 28 70 64 82 81 11 16 49 59 84 95 35 36 89 95 119 131 31 37 64 75 72 85 80 93 95 112 191 239 40 53 124 175 170 246 13 21 44 77 69 125 25 49 51 94 57 101 17 20 56 122 80 209 16 55 23 107 23 178 1 92 -1 105 -29 159 -70 138 -210 233 -365 247 -120 11 -287 10 -340 -2 -25 -5 -76 -14 -115 -18 -80 -10 -158 -30 -228 -60 -27 -12 -55 -21 -62 -21 -17 0 -194 -68 -220 -84 -11 -7 -45 -22 -75 -34 -30 -11 -86 -34 -124 -52 -39 -17 -86 -38 -105 -46 -60 -26 -115 -52 -141 -68 -14 -9 -41 -22 -60 -31 -19 -8 -69 -35 -110 -59 -41 -25 -108 -62 -148 -82 -48 -24 -77 -46 -83 -61 -6 -16 -17 -23 -34 -23 -30 0 -88 -36 -129 -79 -17 -17 -38 -31 -48 -31 -37 0 -91 -31 -148 -83 -32 -30 -77 -64 -101 -76 -72 -36 -113 -63 -165 -110 -27 -24 -63 -50 -80 -58 -19 -10 -39 -32 -53 -59 -27 -57 -27 -78 2 -93 30 -16 83 6 152 63 27 23 73 57 100 76 28 19 59 42 69 52 11 10 25 18 30 18 6 0 42 25 80 55 38 30 74 55 80 55 6 0 45 25 86 55 41 30 79 55 83 55 5 0 52 26 105 58 54 32 112 64 130 72 17 7 32 16 32 21 0 5 28 22 63 38 34 16 73 36 87 45 32 19 296 146 303 146 6 0 71 29 234 106 40 19 81 34 91 34 10 0 22 4 28 9 13 14 280 101 307 101 12 0 31 6 42 14 55 37 395 56 500 27 116 -31 185 -85 206 -163 14 -53 7 -191 -15 -275 -17 -65 -106 -257 -143 -310 -13 -17 -23 -34 -23 -38 0 -4 -25 -45 -55 -90 -30 -46 -55 -89 -55 -94 0 -6 -8 -18 -18 -28 -10 -10 -49 -58 -86 -108 -38 -49 -87 -110 -110 -135 -23 -25 -56 -65 -73 -90 -17 -25 -46 -59 -64 -76 -19 -17 -59 -61 -89 -97 -30 -37 -65 -71 -76 -78 -12 -6 -27 -22 -34 -34 -7 -13 -128 -135 -268 -272 -354 -343 -354 -343 -368 -343 -7 0 -30 -20 -51 -45 -21 -25 -63 -66 -93 -90 -31 -23 -85 -69 -121 -102 -136 -121 -336 -283 -350 -283 -4 0 -20 -12 -36 -28 -44 -43 -126 -108 -153 -122 -14 -7 -36 -23 -50 -37 -37 -36 -111 -93 -120 -93 -5 0 -42 -25 -82 -55 -40 -30 -78 -55 -84 -55 -6 0 -18 -7 -25 -16 -12 -15 -90 -69 -151 -104 -113 -65 -225 -128 -256 -144 -20 -11 -44 -23 -52 -28 -8 -4 -26 -14 -40 -20 -14 -7 -37 -20 -51 -30 -15 -10 -51 -24 -80 -32 -30 -8 -79 -24 -109 -36 -70 -27 -232 -38 -270 -18 -47 25 -62 72 -57 178 6 129 73 325 165 485 6 11 31 61 55 110 48 100 66 132 85 156 19 24 142 231 142 239 0 4 10 15 21 26 12 10 33 37 47 59 13 22 42 63 63 91 22 28 39 56 39 61 0 6 7 16 16 24 9 7 47 54 85 103 37 50 89 113 114 141 25 27 47 56 51 65 3 8 29 35 59 60 30 25 70 66 90 91 19 25 77 84 128 130 50 46 104 95 119 109 94 86 240 197 323 245 28 15 63 39 78 52 42 35 194 105 252 116 102 20 178 9 244 -36 27 -19 58 -30 80 -31 32 -1 36 2 39 25 4 34 -62 102 -139 143 -49 27 -63 30 -149 30 -81 0 -109 -5 -192 -33 -54 -18 -102 -39 -108 -46 -6 -8 -39 -28 -73 -45 -34 -18 -71 -41 -83 -51 -11 -11 -25 -19 -30 -19 -6 0 -28 -15 -50 -33 -22 -17 -46 -36 -55 -42 -57 -36 -97 -65 -113 -84 -11 -11 -24 -21 -31 -21 -6 0 -25 -15 -42 -32 -17 -18 -54 -53 -83 -78 -87 -74 -233 -222 -324 -327 -47 -54 -109 -124 -138 -156 -29 -32 -71 -85 -93 -117 -49 -71 -68 -85 -96 -70 -41 22 -78 1 -183 -104 -57 -55 -120 -125 -140 -153 -21 -29 -42 -53 -47 -53 -5 0 -27 -16 -49 -36 -26 -24 -53 -38 -78 -41 -33 -4 -44 -1 -76 27 -25 23 -50 34 -80 37 -38 5 -47 2 -67 -21 -25 -29 -59 -35 -59 -10 0 8 11 30 24 47 13 18 31 48 41 67 9 19 28 46 40 60 13 14 31 39 42 56 36 62 77 120 107 155 31 36 105 138 138 188 33 52 19 85 -41 97 -29 6 -37 1 -94 -58 -70 -72 -112 -124 -145 -181 -12 -22 -39 -60 -60 -86 -20 -25 -48 -61 -61 -80 -13 -18 -30 -41 -37 -50 -45 -51 -74 -89 -74 -95 0 -4 -25 -38 -55 -75 -30 -38 -55 -73 -55 -79 0 -6 -7 -18 -16 -27 -42 -41 -231 -299 -281 -383 -12 -21 -36 -52 -52 -71 -17 -19 -31 -39 -31 -44 0 -10 -36 -62 -126 -182 -29 -38 -60 -84 -71 -102 -10 -17 -69 -106 -131 -198 -61 -91 -112 -170 -112 -175 0 -19 -40 -50 -63 -50 -22 0 -24 -4 -23 -44 1 -32 -5 -51 -20 -68 -12 -13 -23 -30 -26 -38 -3 -9 -31 -55 -63 -103 -37 -58 -62 -87 -75 -87 -35 0 -32 36 10 120 22 44 50 104 61 132 11 28 31 64 45 80 13 16 24 36 24 44 0 14 104 227 176 359 24 44 47 87 50 95 14 33 64 136 77 160 8 14 30 57 50 95 55 110 97 186 134 243 l34 52 82 0 c101 0 172 19 172 46 0 29 -43 45 -117 42 -37 -1 -70 1 -74 5 -10 9 24 92 50 125 13 15 30 47 40 72 10 25 31 68 48 95 17 28 39 64 48 80 74 128 98 172 142 260 27 55 63 123 80 150 17 28 48 84 70 125 22 41 48 84 58 95 10 11 25 37 34 58 8 20 31 61 50 90 18 28 42 68 53 88 10 19 26 48 36 65 27 44 104 179 149 263 22 41 48 86 58 100 34 50 148 247 205 356 31 61 66 119 76 131 11 11 19 30 19 41 0 32 29 93 44 93 23 0 46 46 40 79 -5 23 -2 32 14 40 11 6 27 32 36 57 9 26 27 62 41 80 14 18 25 42 25 52 0 11 13 33 29 48 16 15 36 51 47 83 9 31 26 74 36 97 10 22 18 49 18 60 0 21 26 64 47 77 7 4 13 25 13 45 0 20 5 53 10 72 19 63 21 138 5 178 -25 60 -72 85 -168 88 -45 2 -95 -1 -112 -5z m144 -112 c22 -20 23 -28 18 -108 -5 -92 -32 -189 -85 -304 -18 -38 -32 -72 -32 -76 0 -4 -9 -16 -20 -26 -11 -10 -20 -27 -20 -38 0 -11 -11 -39 -24 -61 -13 -23 -26 -53 -30 -68 -3 -14 -17 -39 -30 -55 -13 -15 -27 -39 -31 -53 -10 -31 -74 -130 -85 -130 -4 0 -13 -14 -19 -32 -6 -17 -22 -45 -35 -62 -13 -17 -26 -41 -30 -53 -4 -13 -12 -23 -17 -23 -5 0 -21 -24 -34 -52 -14 -29 -37 -73 -52 -98 -27 -47 -126 -214 -142 -240 -5 -8 -41 -72 -80 -141 -39 -70 -77 -132 -85 -138 -8 -6 -20 -26 -27 -44 -7 -18 -31 -63 -53 -102 -67 -115 -74 -129 -91 -160 -8 -16 -28 -52 -45 -80 -16 -27 -44 -76 -62 -108 -18 -32 -46 -82 -63 -111 -16 -29 -45 -81 -64 -117 -18 -35 -48 -86 -67 -114 -18 -27 -62 -108 -99 -180 -74 -143 -78 -151 -151 -280 -28 -49 -56 -105 -64 -123 -20 -52 -38 -57 -207 -54 -145 3 -450 -19 -523 -38 -19 -4 -60 -12 -90 -15 -30 -4 -77 -16 -103 -26 -26 -11 -58 -19 -70 -19 -13 0 -68 -14 -122 -30 -55 -17 -116 -35 -135 -40 -19 -5 -62 -18 -95 -29 -33 -10 -75 -22 -92 -25 -17 -4 -37 -14 -44 -22 -6 -8 -21 -14 -33 -14 -18 0 -156 -45 -281 -93 -22 -8 -68 -23 -103 -32 -34 -10 -67 -24 -73 -32 -6 -7 -24 -13 -40 -13 -15 0 -31 -5 -34 -10 -3 -5 -15 -10 -26 -10 -11 0 -49 -9 -85 -21 -98 -32 -122 -12 -82 67 12 26 38 62 56 79 17 18 32 37 32 42 0 6 7 17 17 24 16 14 74 88 127 163 16 23 35 44 42 49 7 4 50 55 95 113 45 58 87 108 94 111 7 2 19 18 25 33 7 16 40 54 74 84 37 32 91 96 131 156 37 55 74 104 80 108 7 4 42 43 79 87 37 44 93 109 124 144 31 35 64 76 73 91 9 15 28 35 41 46 13 10 46 44 72 74 60 69 203 224 276 300 30 31 80 83 111 116 30 32 63 66 72 74 9 8 48 47 86 85 38 39 75 76 83 83 7 7 58 59 114 115 100 102 288 279 374 353 25 22 56 50 70 64 66 64 209 192 245 218 22 17 65 53 95 81 30 28 57 51 61 51 3 0 28 20 55 46 27 25 65 56 84 68 19 13 44 32 55 42 44 41 114 94 139 105 14 7 26 16 26 20 0 4 35 34 78 65 42 32 118 88 167 124 106 78 201 140 216 140 6 0 25 10 41 22 44 31 158 76 194 77 18 1 40 -8 53 -20z"/>
</g>
</svg>